<svg width="248" height="68" viewBox="0 0 248 68" fill="none" xmlns="http://www.w3.org/2000/svg">
<path d="M112.408 49.2078C112.408 48.2835 112.408 42.4538 112.443 41.9916C112.479 41.885 112.55 41.6717 112.692 41.6717C112.834 41.6717 112.906 41.7428 112.941 41.8495C114.363 44.6222 115.607 47.3949 116.887 50.0965C117.065 50.4875 117.456 51.625 117.562 51.7316C117.704 51.9449 117.953 51.8738 118.167 51.8738L122.077 51.9094C122.539 51.9094 122.646 51.625 122.539 51.234C122.255 50.1675 120.228 46.3995 119.766 45.4753C119.446 44.7643 117.313 40.6408 117.242 40.3209C117.171 40.1787 117.704 39.9299 117.776 39.8233C119.482 38.2947 121.01 36.7306 121.33 34.349C121.686 32.0028 121.153 29.4434 119.624 27.5594C118.451 26.1731 116.922 25.3555 115.109 25.2488C114.008 25.1777 112.941 25.2844 111.839 25.2488C110.879 25.2133 110.204 25.2133 108.995 25.2133C108.427 25.2133 108.071 25.5332 108.036 26.1375V26.5641C107.964 29.3012 108.036 32.0384 108.071 34.74C108.071 38.8635 108 49.741 108 51.3051C108 51.7672 108.071 51.8738 108.498 51.8738C108.746 51.8738 109.031 51.9094 109.28 51.9094C110.275 51.9094 110.879 51.8738 111.91 51.8738C112.692 51.8738 112.408 50.5941 112.408 49.2078ZM112.408 35.3443L112.443 31.754C112.479 31.2208 112.301 30.1544 112.799 29.7633C113.474 29.2657 114.861 29.7633 115.465 30.1899C117.242 31.3985 117.1 34.3845 116.14 36.0552C115.678 36.8373 114.896 37.2994 114.008 37.5482C113.474 37.6904 112.479 37.8682 112.443 37.015C112.443 36.4463 112.408 35.3443 112.408 35.3443ZM126.165 44.5866H126.129C126.129 45.4753 126.094 46.3995 126.129 47.3238C126.165 48.4613 126.236 49.5988 126.307 50.7363C126.307 51.1273 126.414 51.234 126.769 51.3051C127.516 51.4828 128.226 51.5183 128.973 51.5183C130.893 51.4473 132.812 51.5894 134.732 51.5183C135.514 51.4828 135.869 51.5539 136.651 51.4117C137.362 51.2695 137.611 50.8785 137.611 49.8121C137.54 49.1367 137.575 48.8523 137.575 48.0347C137.575 46.8616 136.758 46.4706 136.047 46.5062C135.549 46.5417 133.168 46.4706 132.208 46.4706C130.608 46.5062 130.857 46.7194 130.857 45.0487C130.857 43.6979 130.893 41.9561 130.893 40.5698C130.893 39.8233 130.964 39.5744 131.675 39.5744H136.118C136.829 39.6811 137.327 39.1834 137.327 38.4369C137.327 37.6904 137.398 37.6549 137.398 36.9084L137.291 35.842C137.22 35.2376 137.007 35.0244 136.402 35.0244C136.011 35.0244 135.62 35.0599 135.229 35.0955C133.701 35.2021 132.99 34.9888 131.497 35.0955C130.999 35.0955 130.928 35.0244 130.893 34.5622C130.75 33.1759 130.893 31.6474 131.035 30.261C131.07 29.6923 131.212 29.5856 131.746 29.5501L136.758 29.5145C137.433 29.4434 137.647 29.479 137.611 28.8036C137.54 27.7727 137.647 26.7063 137.54 25.6754C137.469 25.1066 137.291 25 136.651 25C135.585 25.0355 135.336 25.0355 134.27 25.1066C133.203 25.1422 128.937 25.1422 127.907 25.1422C126.414 25.1422 126.307 25.0355 126.271 26.8485C126.2 28.2704 126.236 29.7278 126.236 31.1852C126.236 33.6736 126.094 42.596 126.165 44.5866ZM156.131 45.3331C156.344 44.871 156.522 44.4089 156.7 43.9468C157.091 42.8092 157.162 41.6362 157.269 40.4631C157.482 37.9748 157.411 35.4509 156.771 33.0337C155.989 29.9411 153.998 27.0973 151.012 25.782C149.662 25.1777 148.133 25.1066 146.676 25.1422C145.147 25.1422 143.583 25.0711 142.054 25.2133C141.628 25.2488 141.415 25.4621 141.343 25.8531C141.272 26.2797 141.201 26.7063 141.201 27.0973C141.272 29.2657 141.201 35.6998 141.272 36.7662C141.308 37.726 141.201 38.899 141.201 39.8588C141.237 42.2405 141.201 44.6577 141.201 47.0394C141.201 48.0347 141.166 48.9945 141.166 49.9898C141.166 51.0562 140.775 51.5183 143.69 51.5183C146.285 51.5183 148.986 51.3051 151.439 50.3808C153.714 49.5632 155.136 47.4659 156.131 45.3331ZM145.787 41.6362V37.3705C145.787 34.6689 145.858 32.9271 145.751 30.652V30.2255C145.787 29.479 145.894 29.4434 146.676 29.4434C147.706 29.4079 148.453 29.6567 149.342 30.0122C150.23 30.3677 150.728 31.1497 151.19 31.8962C152.079 33.3536 152.434 34.9533 152.505 36.624C152.541 37.5838 152.576 38.5436 152.576 39.5033C152.576 44.0534 149.91 47.2171 147.564 47.2171C146 47.2171 145.751 47.3238 145.751 46.2929C145.751 45.2265 145.822 44.16 145.822 43.0936C145.787 42.6315 145.787 42.1338 145.787 41.6362ZM160.93 28.6969C160.895 30.9009 161.108 47.0038 161.072 48.1769C161.072 49.2789 161.072 50.3808 161.108 51.4828C161.108 51.6605 161.214 51.8383 161.392 51.8383C163.88 51.9449 166.333 51.7316 168.822 51.7672C169.639 51.8027 170.457 51.7672 171.239 51.7672C172.021 51.7316 172.092 51.4117 172.056 50.7719C172.021 49.7765 172.021 48.8878 172.021 47.9281C171.985 47.4304 171.701 47.2527 171.274 47.2527C169.817 47.2882 168.359 47.2171 166.902 47.2882C166.653 47.3238 166.404 47.3238 166.156 47.3238C165.729 47.2882 165.622 47.1816 165.587 46.7195V46.1862C165.48 43.2358 165.693 40.1787 165.693 37.2283C165.658 34.74 165.693 32.5005 165.658 30.2966C165.658 29.3368 165.658 28.377 165.622 27.4528C165.587 26.884 165.622 26.2797 165.48 25.7109C165.409 25.4977 165.302 25.2133 165.054 25.2133H161.712C161.143 25.2133 160.966 25.6043 160.93 26.1731V28.6969ZM194.345 31.754C195.091 33.9579 195.269 36.3396 195.269 38.6857C195.269 40.6408 194.913 42.5249 194.416 44.4089C193.776 46.6484 192.709 48.6746 190.79 49.9898C189.368 51.0207 187.875 51.6961 186.133 51.8738C185.884 51.8738 185.671 51.9094 185.422 51.9094C185.209 51.9094 184.996 51.8738 184.747 51.8738C183.005 51.6961 181.512 51.0207 180.055 49.9898C178.171 48.6746 177.069 46.6484 176.464 44.4089C175.931 42.5249 175.611 40.6408 175.611 38.6857C175.611 36.3396 175.789 33.9579 176.535 31.754C177.851 27.9504 181.476 25.2488 185.422 25.1777C189.368 25.2488 192.994 27.9504 194.345 31.754ZM190.896 41.2807C191.252 39.1123 191.11 36.9084 190.683 34.74C190.257 32.7849 189.404 30.8653 187.768 29.6923C187.484 29.479 187.164 29.3012 186.844 29.1946C186.382 28.9813 185.884 28.9102 185.422 28.9102C184.96 28.9102 184.498 28.9813 184.036 29.1946C183.68 29.3012 183.396 29.479 183.112 29.6923C181.441 30.8653 180.588 32.7849 180.197 34.74C179.77 36.9084 179.628 39.1123 179.983 41.2807C180.339 43.2358 181.05 45.8663 182.898 46.8616C183.68 47.2882 184.534 47.5726 185.422 47.6081C186.311 47.5726 187.2 47.2882 187.982 46.8616C189.83 45.8663 190.541 43.2358 190.896 41.2807ZM203.338 47.9992C203.374 49.1011 203.374 50.2031 203.409 51.3051C203.409 51.8027 203.445 51.8738 203.942 51.8738H207.142C207.817 51.8738 207.675 50.7363 207.639 50.132L207.746 30.2255C207.746 29.6923 207.924 29.5145 208.635 29.5145H211.763C212.509 29.5145 212.332 28.2348 212.332 27.3461C212.332 26.5641 212.616 25.2133 211.763 25.2133C211.159 25.2133 205.364 25.2133 202.983 25.2488C201.81 25.2488 200.85 25.2133 199.677 25.2133C198.788 25.2133 198.824 25.9242 198.824 27.4883C198.824 28.4836 198.788 29.479 199.641 29.479C200.139 29.479 202.165 29.479 202.734 29.5145C203.089 29.5145 203.338 29.6212 203.409 30.0122C203.409 30.1188 203.445 30.2255 203.445 30.3321C203.445 32.8915 203.267 44.7999 203.338 47.9992ZM215.922 31.0431C215.922 34.6333 215.957 38.2592 216.028 41.8139C216.064 43.9823 216.028 46.4351 217.059 48.4257C218.375 50.9851 221.29 52.1227 224.098 51.9449C226.017 51.8027 227.795 51.3051 229.181 49.8832C231.527 47.3593 231.065 43.4135 231.101 40.1787C231.172 35.522 231.278 31.1852 231.278 26.493C231.278 25.7109 231.029 25.2844 230.247 25.2488C229.288 25.2133 228.328 25.2488 227.368 25.3199C226.977 25.3199 226.657 25.6754 226.657 26.102C226.693 29.5145 226.764 32.9626 226.728 36.4107C226.693 39.3611 227.084 42.6315 225.982 45.4397C225.555 46.4706 224.595 47.2527 223.458 47.2527C220.614 47.1816 220.721 43.8046 220.614 41.8139C220.401 37.4771 220.721 33.0337 220.827 28.6969C220.827 27.8793 220.827 27.0617 220.863 26.2442C220.898 25.8176 220.97 25.2844 220.401 25.2488H219.761C218.872 25.3199 217.984 25.2133 217.095 25.2488C216.242 25.3199 215.957 25.5688 215.957 26.4219C215.957 27.9504 215.922 29.5145 215.922 31.0431ZM242.085 25.0355C241.409 25.0711 240.734 25.1777 240.059 25.391C238.601 25.8887 237.286 26.884 236.397 28.1637C235.615 29.3368 235.295 30.7231 235.189 32.1095C235.117 33.1759 235.224 34.2779 235.722 35.2376C236.255 36.2685 237.179 37.1572 237.961 38.0103C238.672 38.7568 239.383 39.5033 240.165 40.1787C240.876 40.8541 241.694 41.3873 242.405 42.0983C243.436 43.1292 243.827 45.4753 243.08 46.755C242.191 48.1769 240.094 48.3902 238.708 47.9281C237.997 47.6792 237.357 47.146 236.753 46.7195C236.397 46.4706 235.971 46.364 235.722 46.7905C235.58 47.0038 235.508 47.2527 235.437 47.4659C235.189 48.3546 234.869 49.1722 234.833 50.132C234.798 51.234 236.895 51.5539 237.677 51.7316C241.16 52.5492 245.355 51.9094 247.168 48.4613C247.523 47.7503 247.772 47.0038 247.915 46.2218C247.95 45.9374 247.986 45.6886 247.986 45.4042C248.128 43.1292 247.204 41.2096 245.817 39.5033C244.324 37.6549 242.44 36.3752 240.698 34.7755C239.632 33.7802 239.241 32.2161 239.561 30.7942C239.881 29.2657 241.623 28.8747 242.938 29.2657C243.329 29.3723 243.649 29.5501 244.004 29.7633C244.218 29.87 244.431 30.0122 244.715 30.0122C245.213 30.0477 245.284 29.6567 245.391 29.2657C245.639 28.377 246.066 27.6661 246.244 26.8129C246.422 25.8531 245.639 25.6754 244.857 25.4266C243.933 25.1777 243.045 25 242.085 25.0355Z" fill="#333131"/>
<path d="M25.2985 3.43668C22.2089 -0.010891 17.5368 -2.42355 17.2504 4.09353C16.8134 14.0493 21.979 12.6967 25.0598 15.9219C30.9263 20.5137 31.8771 22.8849 36.0003 28.2628C34.4957 22.3398 33.241 17.8071 29.9994 13.056C26.3836 7.75719 29.7633 8.41906 25.2985 3.43678L25.2985 3.43668ZM80.527 42.8655L85.6198 42.5428L83.4157 41.5744C82.5039 42.0316 81.5443 42.4636 80.527 42.8655ZM86.6736 59.8508C82.8731 59.5959 77.3847 57.8991 74.1858 56.3982L69.6393 55.1662C70.261 55.8268 71.007 56.9056 72.0093 59.0458C77.2214 60.2364 81.4903 60.8781 86.6736 59.8508L86.6736 59.8508ZM74.1707 55.4563C79.9217 58.1013 97.6128 63.6174 94.0999 51.2451C93.8135 50.2379 93.4079 49.3235 92.9771 48.6516C87.4284 52.1908 79.9002 55.1599 74.1706 55.4563H74.1707ZM69.3881 66.8828C61.6327 65.6997 55.0177 60.2565 51.3353 53.6515C50.4637 52.0904 49.5808 50.5017 48.2909 49.0473L47.7923 49.0084C48.527 58.713 56.7258 68.2618 66.9315 67.2721C67.7805 67.1905 68.617 67.0574 69.3881 66.8828H69.3881ZM72.1927 61.5903C67.6223 50.4828 66.2031 57.1832 55.7789 46.3369C53.9389 47.6293 51.5689 48.8174 49.3811 49.0196C53.0999 53.6176 52.4355 56.7361 60.255 62.2421C62.792 64.028 75.8951 70.5903 72.1927 61.5902L72.1927 61.5903ZM81.1073 43.6518C84.6791 44.384 93.3338 47.0139 94.9427 46.2302C96.4913 44.9002 89.5648 43.6355 88.8351 43.5551L81.1073 43.6518L81.1073 43.6518ZM93.5963 47.2237C87.6608 46.9712 82.0869 43.1406 68.8066 43.6618C66.1629 43.7661 62.9791 44.0801 57.7757 44.7193C57.3751 45.0936 56.9405 45.4653 56.4683 45.8296C60.1721 49.6564 66.021 54.007 71.2307 54.5495C77.9876 55.2529 87.4775 51.4624 93.5964 47.2236L93.5963 47.2237ZM98.6691 25.83C94.5207 26.4894 84.0223 32.7163 78.3316 35.3915C75.6552 38.0503 71.4805 41.4099 67.3874 42.8856L77.4211 43.0678C86.602 40.1892 91.4876 35.1817 96.701 29.8403C98.7356 27.7554 101.777 25.4935 98.669 25.8301L98.6691 25.83ZM98.4869 25.0011C94.856 24.0064 86.4538 26.5522 82.2477 28.4939L79.9506 33.6696C85.3812 30.9869 94.2933 25.6944 98.4869 25.0011V25.0011ZM67.6274 22.4968C71.6828 21.0148 78.1672 20.1482 81.4941 23.2905L82.6986 26.5723C89.3563 18.2969 88.7999 12.8574 90.3962 9.52676C87.6193 8.24443 82.5353 9.44763 79.5248 11.177C75.1931 13.6651 70.6466 18.1475 67.6274 22.4968L67.6274 22.4968ZM74.0238 21.9618C69.834 21.816 62.9138 25.408 59.7677 27.2153C56.8929 28.8669 56.2749 30.5046 55.122 32.4463C64.2715 33.0341 64.1522 37.892 58.7831 43.707C67.0132 42.6722 71.0888 41.4187 77.7829 34.7384C80.3412 32.1851 80.5234 31.4792 81.6763 27.405C82.9649 22.8522 77.2931 22.076 74.0239 21.9618L74.0238 21.9618ZM49.0194 20.3139C52.9718 20.6606 62.3851 23.244 60.4522 25.3339L59.8016 26.2219C61.477 25.2787 63.8118 24.0554 66.2421 23.0469C67.6663 20.8352 69.3882 18.7076 71.2181 16.8024C70.6705 9.60082 69.7537 6.27885 63.3798 7.60762C57.0825 8.92008 51.9935 13.1614 49.0194 20.3139L49.0194 20.3139ZM41.1145 22.8321C47.2837 26.0209 59.0192 25.8639 59.8004 24.7876C59.2428 22.4817 43.9229 19.161 40.9626 22.3586L41.1146 22.8321H41.1145ZM44.6236 30.595C48.041 31.8347 48.4429 32.6146 50.8857 32.4564C52.0914 32.3885 53.1753 32.3735 54.1524 32.4023L57.7996 27.5155L58.9765 25.9091C54.4764 26.939 46.4497 26.1302 41.7651 24.083L44.6236 30.5951L44.6236 30.595ZM41.7023 45.0158C45.2842 47.7248 47.9895 49.3764 52.5863 47.2086C57.0197 45.1175 66.4267 36.3397 58.6361 33.8894C53.2757 32.2039 51.2964 34.447 47.1945 32.5405C42.8276 30.5097 33.8502 26.7984 35.876 35.9931C37.1369 41.7151 38.2974 42.4411 41.7023 45.0157L41.7023 45.0158ZM44.6475 51.519C42.5412 55.5141 40.8407 57.7899 39.1339 59.2279C37.4723 60.6283 35.8358 61.2173 33.8313 61.8039C40.7252 61.883 47.6102 55.0821 47.7635 53.3853C47.3201 51.8945 47.0275 50.366 46.9333 48.8614L46.0943 48.6228L44.6475 51.519ZM42.9331 52.8804L31.8784 58.6967C28.8779 59.8245 24.5763 61.4421 19.0691 59.5432C25.1729 62.5788 34.2069 62.2698 38.5901 58.5786C39.9478 57.4357 41.3155 55.7038 42.9331 52.8804L42.9331 52.8804ZM22.9348 42.475C18.7638 44.0123 10.8778 47.4472 13.4185 53.6767C14.358 55.9801 16.4793 57.6806 18.9861 58.61C25.954 61.1935 32.4309 57.8439 38.2358 54.6538C42.8049 52.1432 44.4527 51.5065 45.2954 48.3126C43.0197 47.3116 38.2433 43.751 36.9937 41.7654L29.3626 42.4537L22.9348 42.475L22.9348 42.475ZM22.8594 35.4179C13.9611 28.6396 11.1177 27.0797 1.27743 22.1363L0.837859 21.9015C4.31177 29.0666 12.9011 38.5476 20.6265 40.9139C26.0433 42.573 29.1844 41.3622 33.7975 41.2781C34.7532 41.2605 35.4679 41.2467 36.5015 41.0118C31.3559 39.3138 27.9762 40.5723 22.8596 35.4179L22.8594 35.4179ZM20.4216 32.538C17.8281 28.9963 15.8613 25.069 14.4547 20.8C11.7343 19.6898 2.00956 16.5838 0.101861 19.5278C-0.00366068 19.6898 -0.0337973 19.8681 0.0428166 20.0653C0.450996 21.0839 9.68338 25.3942 12.1149 26.8913L20.4217 32.538L20.4216 32.538ZM36.2352 29.9244C31.5995 24.3229 27.6986 16.7458 19.2185 13.6625C12.6524 11.275 14.108 15.0729 14.4069 17.5634C14.9206 21.8386 19.3892 30.266 22.5982 33.8982C27.5641 39.5197 30.6223 38.4434 36.1321 40.0108C35.1022 37.3432 33.57 31.9791 36.2351 29.9244L36.2352 29.9244ZM34.7419 6.83028C30.5985 5.46257 30.5282 6.7838 28.9671 8.93148C29.5636 12.0286 32.2928 13.4566 34.8248 21.1003C35.7177 23.7967 36.5228 26.7984 37.1621 29.4271C39.0485 28.7351 41.2451 29.3982 43.5259 30.1995L40.5832 23.5016C39.9716 22.7769 39.3499 21.9693 41.4574 21.0575C42.7372 20.4999 44.9275 20.103 47.7408 20.2248C45.4575 15.117 40.6812 8.79077 34.7419 6.83026L34.7419 6.83028Z" fill="#D2042D"/>
</svg>
